<svg width="28" height="28" viewBox="0 0 28 28" fill="none" xmlns="http://www.w3.org/2000/svg">
    <path d="M24.9783 10.0798C24.9783 10.0798 24.9783 10.0798 24.9783 10.0215C24.1562 7.77708 22.6647 5.83932 20.7053 4.47033C18.746 3.10134 16.4135 2.36719 14.0233 2.36719C11.6331 2.36719 9.30053 3.10134 7.3412 4.47033C5.38188 5.83932 3.89031 7.77708 3.06828 10.0215C3.06828 10.0215 3.06828 10.0215 3.06828 10.0798C2.15026 12.6125 2.15026 15.3871 3.06828 17.9198C3.06828 17.9198 3.06828 17.9198 3.06828 17.9782C3.89031 20.2226 5.38188 22.1603 7.3412 23.5293C9.30053 24.8983 11.6331 25.6325 14.0233 25.6325C16.4135 25.6325 18.746 24.8983 20.7053 23.5293C22.6647 22.1603 24.1562 20.2226 24.9783 17.9782C24.9783 17.9782 24.9783 17.9782 24.9783 17.9198C25.8963 15.3871 25.8963 12.6125 24.9783 10.0798ZM4.96994 16.3332C4.56538 14.8039 4.56538 13.1957 4.96994 11.6665H7.13994C6.95331 13.2164 6.95331 14.7832 7.13994 16.3332H4.96994ZM5.92661 18.6665H7.55994C7.83378 19.707 8.22519 20.7129 8.72661 21.6648C7.58246 20.8854 6.62602 19.8612 5.92661 18.6665ZM7.55994 9.33315H5.92661C6.61596 8.14209 7.56017 7.1182 8.69161 6.33482C8.20226 7.28827 7.82261 8.29414 7.55994 9.33315ZM12.8333 22.9832C11.4003 21.9316 10.3939 20.3993 9.99828 18.6665H12.8333V22.9832ZM12.8333 16.3332H9.49661C9.2789 14.7852 9.2789 13.2144 9.49661 11.6665H12.8333V16.3332ZM12.8333 9.33315H9.99828C10.3939 7.60038 11.4003 6.06803 12.8333 5.01649V9.33315ZM22.0733 9.33315H20.4399C20.1661 8.29267 19.7747 7.28675 19.2733 6.33482C20.4174 7.11424 21.3739 8.13842 22.0733 9.33315ZM15.1666 5.01649C16.5996 6.06803 17.6059 7.60038 18.0016 9.33315H15.1666V5.01649ZM15.1666 22.9832V18.6665H18.0016C17.6059 20.3993 16.5996 21.9316 15.1666 22.9832ZM18.5033 16.3332H15.1666V11.6665H18.5033C18.721 13.2144 18.721 14.7852 18.5033 16.3332ZM19.3083 21.6648C19.8097 20.7129 20.2011 19.707 20.4749 18.6665H22.1083C21.4089 19.8612 20.4524 20.8854 19.3083 21.6648ZM23.0299 16.3332H20.8599C20.9548 15.559 21.0016 14.7797 20.9999 13.9998C21.0012 13.2199 20.9545 12.4407 20.8599 11.6665H23.0299C23.4345 13.1957 23.4345 14.8039 23.0299 16.3332Z" fill="#828282"/>
</svg>
