<svg width="42" height="40" viewBox="0 0 42 40" fill="none" xmlns="http://www.w3.org/2000/svg">
    <path d="M38.4324 23.5417H24.935V36.2849C24.935 38.3367 23.1732 40 21 40C18.8268 40 17.065 38.3367 17.065 36.2849V23.5417H3.56761C1.54047 23.3435 0 21.7307 0 19.8066C0 17.8825 1.54047 16.2697 3.56761 16.0715H17.0227V3.36826C17.2326 1.45439 18.9409 0 20.9788 0C23.0168 0 24.7251 1.45439 24.935 3.36826V16.0715H38.4324C40.4595 16.2697 42 17.8825 42 19.8066C42 21.7307 40.4595 23.3435 38.4324 23.5417Z" fill="#E0E0E0"/>
</svg>
