<svg width="130" height="130" viewBox="0 0 130 130" fill="none" xmlns="http://www.w3.org/2000/svg">
    <circle cx="65" cy="65" r="64" fill="white" stroke="#BDBDBD" stroke-dasharray="10 10"/>
    <path d="M82.4324 68.5417H68.935V81.2849C68.935 83.3367 67.1732 85 65 85C62.8268 85 61.065 83.3367 61.065 81.2849V68.5417H47.5676C45.5405 68.3435 44 66.7307 44 64.8066C44 62.8825 45.5405 61.2697 47.5676 61.0715H61.0227V48.3683C61.2326 46.4544 62.9409 45 64.9788 45C67.0168 45 68.7251 46.4544 68.935 48.3683V61.0715H82.4324C84.4595 61.2697 86 62.8825 86 64.8066C86 66.7307 84.4595 68.3435 82.4324 68.5417Z" fill="#E0E0E0"/>
</svg>
