<svg width="20" height="20" viewBox="0 0 20 20" fill="none" xmlns="http://www.w3.org/2000/svg">
    <path d="M18.3011 11.7708H11.8738V18.1424C11.8738 19.1683 11.0349 20 10 20C8.96513 20 8.1262 19.1683 8.1262 18.1424V11.7708H1.69886C0.733557 11.6717 0 10.8654 0 9.9033C0 8.94125 0.733557 8.13486 1.69886 8.03576H8.10605V1.68413C8.20601 0.727196 9.01946 0 9.98993 0C10.9604 0 11.7738 0.727196 11.8738 1.68413V8.03576H18.3011C19.2664 8.13486 20 8.94125 20 9.9033C20 10.8654 19.2664 11.6717 18.3011 11.7708Z" fill="#828282"/>
</svg>
