<svg width="38" height="44" viewBox="0 0 38 44" fill="none" xmlns="http://www.w3.org/2000/svg">
    <path d="M28.8791 27.7211L31.7867 30.5894L37.4265 36.143L36.8011 36.7448C33.2652 40.1512 28.7117 42.1844 23.8346 42.5714C23.4944 43.2951 22.7511 43.7988 21.8897 43.7988C21.0119 43.7988 20.2548 43.2766 19.9257 42.5291C17.8684 42.3196 15.866 41.8133 13.9513 41.0154C11.4496 39.9736 9.20301 38.4785 7.27463 36.5778C5.34625 34.6771 3.8321 32.4609 2.77328 29.9956C1.88178 27.9173 1.34686 25.7356 1.17953 23.4876C0.480051 23.1404 0 22.4246 0 21.6002C0 20.7493 0.510222 20.015 1.24537 19.681C1.46481 17.6795 1.97504 15.7338 2.77328 13.8728C3.8321 11.4075 5.34625 9.19136 7.27463 7.29067C9.20301 5.38997 11.4496 3.89487 13.9513 2.85307C15.8577 2.0578 17.8519 1.55412 19.9037 1.34205C20.2219 0.565337 20.9927 0.0166016 21.8925 0.0166016C22.7757 0.0166016 23.5356 0.544135 23.862 1.29699C26.1058 1.47725 28.2893 2.00742 30.3658 2.88222C32.884 3.94258 35.1415 5.45889 37.0726 7.38875L37.6734 7.99051L34.8261 10.8005L29.1397 16.4177L28.528 15.7974C26.83 14.0743 24.556 13.1279 22.1229 13.1279C17.1991 13.1279 13.1915 17.0778 13.1915 21.9342C13.1915 26.7907 17.1991 30.7405 22.1229 30.7405C24.4106 30.7405 26.5859 29.8896 28.2482 28.3441L28.8791 27.7211Z" fill="url(#paint0_linear_1328:21964)"/>
    <defs>
        <linearGradient id="paint0_linear_1328:21964" x1="-0.00074063" y1="21.9116" x2="37.6723" y2="21.9116" gradientUnits="userSpaceOnUse">
            <stop stop-color="#FF088A"/>
            <stop offset="1" stop-color="#BF0975"/>
        </linearGradient>
    </defs>
</svg>
