<svg width="161" height="44" viewBox="0 0 161 44" fill="none" xmlns="http://www.w3.org/2000/svg">
    <path d="M28.8791 27.7211L31.7867 30.5894L37.4265 36.143L36.8011 36.7448C33.2652 40.1512 28.7117 42.1844 23.8346 42.5714C23.4944 43.2951 22.7511 43.7988 21.8897 43.7988C21.0119 43.7988 20.2548 43.2766 19.9257 42.5291C17.8684 42.3196 15.866 41.8133 13.9513 41.0154C11.4496 39.9736 9.20301 38.4785 7.27463 36.5778C5.34625 34.6771 3.8321 32.4609 2.77328 29.9956C1.88178 27.9173 1.34686 25.7356 1.17953 23.4876C0.480051 23.1404 0 22.4246 0 21.6002C0 20.7493 0.510222 20.015 1.24537 19.681C1.46481 17.6795 1.97504 15.7338 2.77328 13.8728C3.8321 11.4075 5.34625 9.19136 7.27463 7.29067C9.20301 5.38997 11.4496 3.89487 13.9513 2.85307C15.8577 2.0578 17.8519 1.55412 19.9037 1.34205C20.2219 0.565337 20.9927 0.0166016 21.8925 0.0166016C22.7757 0.0166016 23.5356 0.544135 23.862 1.29699C26.1058 1.47725 28.2893 2.00742 30.3658 2.88222C32.884 3.94258 35.1415 5.45889 37.0726 7.38875L37.6734 7.99051L34.8261 10.8005L29.1397 16.4177L28.528 15.7974C26.83 14.0743 24.556 13.1279 22.1229 13.1279C17.1991 13.1279 13.1915 17.0778 13.1915 21.9342C13.1915 26.7907 17.1991 30.7405 22.1229 30.7405C24.4106 30.7405 26.5859 29.8896 28.2482 28.3441L28.8791 27.7211Z" fill="url(#paint0_linear_1328:21963)"/>
    <path d="M53.4055 22.5078C53.3459 21.9496 53.0945 21.5149 52.6513 21.2038C52.2124 20.8928 51.6413 20.7372 50.9382 20.7372C50.4439 20.7372 50.0199 20.8118 49.6662 20.9609C49.3125 21.1101 49.0419 21.3125 48.8544 21.5682C48.6669 21.8239 48.571 22.1158 48.5668 22.4439C48.5668 22.7166 48.6286 22.9531 48.7521 23.1534C48.88 23.3537 49.0526 23.5241 49.2699 23.6648C49.4872 23.8011 49.728 23.9162 49.9922 24.0099C50.2564 24.1037 50.5227 24.1825 50.7912 24.2464L52.0185 24.5533C52.5128 24.6683 52.9879 24.8239 53.4439 25.0199C53.9041 25.2159 54.3153 25.4631 54.6776 25.7614C55.044 26.0597 55.3338 26.4197 55.5469 26.8416C55.7599 27.2635 55.8665 27.7578 55.8665 28.3246C55.8665 29.0916 55.6705 29.767 55.2784 30.3509C54.8864 30.9304 54.3196 31.3842 53.5781 31.7124C52.8409 32.0362 51.9482 32.1982 50.8999 32.1982C49.8814 32.1982 48.9972 32.0405 48.2472 31.7251C47.5014 31.4098 46.9176 30.9496 46.4957 30.3445C46.0781 29.7393 45.8523 29.0021 45.8182 28.1328H48.1513C48.1854 28.5888 48.326 28.968 48.5732 29.2706C48.8203 29.5732 49.142 29.799 49.5384 29.9482C49.9389 30.0973 50.3864 30.1719 50.8807 30.1719C51.3963 30.1719 51.848 30.0952 52.2358 29.9418C52.6278 29.7841 52.9347 29.5668 53.1562 29.2898C53.3778 29.0085 53.4908 28.6804 53.495 28.3054C53.4908 27.9645 53.3906 27.6832 53.1946 27.4616C52.9986 27.2358 52.7237 27.0483 52.37 26.8991C52.0206 26.7457 51.6115 26.6094 51.1428 26.4901L49.6534 26.1065C48.5753 25.8295 47.723 25.4098 47.0966 24.8473C46.4744 24.2805 46.1634 23.5284 46.1634 22.5909C46.1634 21.8196 46.3722 21.1442 46.7898 20.5646C47.2116 19.9851 47.7848 19.5355 48.5092 19.2159C49.2337 18.892 50.054 18.7301 50.9702 18.7301C51.8991 18.7301 52.7131 18.892 53.4119 19.2159C54.1151 19.5355 54.6669 19.9808 55.0675 20.5518C55.468 21.1186 55.6747 21.7706 55.6875 22.5078H53.4055ZM66.9528 18.9091H69.3242V27.4616C69.3242 28.3991 69.1026 29.2237 68.6595 29.9354C68.2205 30.647 67.6026 31.2031 66.8058 31.6037C66.0089 32 65.0778 32.1982 64.0124 32.1982C62.9428 32.1982 62.0096 32 61.2127 31.6037C60.4158 31.2031 59.7979 30.647 59.359 29.9354C58.9201 29.2237 58.7006 28.3991 58.7006 27.4616V18.9091H61.0721V27.2635C61.0721 27.8089 61.1914 28.2947 61.4301 28.7209C61.6729 29.147 62.0139 29.4815 62.4528 29.7244C62.8917 29.9631 63.4116 30.0824 64.0124 30.0824C64.6133 30.0824 65.1332 29.9631 65.5721 29.7244C66.0153 29.4815 66.3562 29.147 66.5948 28.7209C66.8335 28.2947 66.9528 27.8089 66.9528 27.2635V18.9091ZM72.6218 32V18.9091H77.6332C78.5792 18.9091 79.3654 19.0582 79.9918 19.3565C80.6225 19.6506 81.0934 20.0533 81.4045 20.5646C81.7198 21.076 81.8775 21.6555 81.8775 22.3033C81.8775 22.8359 81.7752 23.2919 81.5707 23.6712C81.3661 24.0462 81.0913 24.3509 80.7461 24.5852C80.4009 24.8196 80.0153 24.9879 79.5891 25.0902V25.218C80.0536 25.2436 80.4989 25.3864 80.9251 25.6463C81.3555 25.902 81.707 26.2642 81.9798 26.733C82.2525 27.2017 82.3889 27.7685 82.3889 28.4332C82.3889 29.1108 82.2248 29.7202 81.8967 30.2614C81.5686 30.7983 81.0742 31.2223 80.4137 31.5334C79.7532 31.8445 78.9222 32 77.9208 32H72.6218ZM74.9933 30.0185H77.5437C78.4045 30.0185 79.0245 29.8544 79.4038 29.5263C79.7873 29.1939 79.9791 28.7678 79.9791 28.2479C79.9791 27.8601 79.8832 27.5107 79.6914 27.1996C79.4997 26.8842 79.2269 26.6371 78.8732 26.4581C78.5195 26.2749 78.0977 26.1832 77.6076 26.1832H74.9933V30.0185ZM74.9933 24.4766H77.3391C77.7482 24.4766 78.1168 24.402 78.445 24.2528C78.7731 24.0994 79.0309 23.8842 79.2184 23.6072C79.4102 23.326 79.5061 22.9936 79.5061 22.6101C79.5061 22.103 79.3271 21.6854 78.9691 21.3572C78.6154 21.0291 78.0891 20.8651 77.3903 20.8651H74.9933V24.4766ZM92.2862 22.5078C92.2266 21.9496 91.9752 21.5149 91.532 21.2038C91.0931 20.8928 90.522 20.7372 89.8189 20.7372C89.3246 20.7372 88.9006 20.8118 88.5469 20.9609C88.1932 21.1101 87.9226 21.3125 87.7351 21.5682C87.5476 21.8239 87.4517 22.1158 87.4475 22.4439C87.4475 22.7166 87.5093 22.9531 87.6328 23.1534C87.7607 23.3537 87.9333 23.5241 88.1506 23.6648C88.3679 23.8011 88.6087 23.9162 88.8729 24.0099C89.1371 24.1037 89.4034 24.1825 89.6719 24.2464L90.8992 24.5533C91.3935 24.6683 91.8686 24.8239 92.3246 25.0199C92.7848 25.2159 93.196 25.4631 93.5583 25.7614C93.9247 26.0597 94.2145 26.4197 94.4276 26.8416C94.6406 27.2635 94.7472 27.7578 94.7472 28.3246C94.7472 29.0916 94.5512 29.767 94.1591 30.3509C93.7671 30.9304 93.2003 31.3842 92.4588 31.7124C91.7216 32.0362 90.8289 32.1982 89.7806 32.1982C88.7621 32.1982 87.8779 32.0405 87.1279 31.7251C86.3821 31.4098 85.7983 30.9496 85.3764 30.3445C84.9588 29.7393 84.733 29.0021 84.6989 28.1328H87.032C87.0661 28.5888 87.2067 28.968 87.4539 29.2706C87.701 29.5732 88.0227 29.799 88.4191 29.9482C88.8196 30.0973 89.2671 30.1719 89.7614 30.1719C90.277 30.1719 90.7287 30.0952 91.1165 29.9418C91.5085 29.7841 91.8154 29.5668 92.037 29.2898C92.2585 29.0085 92.3715 28.6804 92.3757 28.3054C92.3715 27.9645 92.2713 27.6832 92.0753 27.4616C91.8793 27.2358 91.6044 27.0483 91.2507 26.8991C90.9013 26.7457 90.4922 26.6094 90.0235 26.4901L88.5341 26.1065C87.456 25.8295 86.6037 25.4098 85.9773 24.8473C85.3551 24.2805 85.0441 23.5284 85.0441 22.5909C85.0441 21.8196 85.2529 21.1442 85.6705 20.5646C86.0924 19.9851 86.6655 19.5355 87.3899 19.2159C88.1144 18.892 88.9347 18.7301 89.8509 18.7301C90.7799 18.7301 91.5938 18.892 92.2926 19.2159C92.9958 19.5355 93.5476 19.9808 93.9482 20.5518C94.3487 21.1186 94.5554 21.7706 94.5682 22.5078H92.2862ZM108.787 23.326H106.396C106.328 22.9339 106.202 22.5866 106.019 22.2841C105.836 21.9773 105.608 21.7173 105.335 21.5043C105.062 21.2912 104.751 21.1314 104.402 21.0249C104.056 20.9141 103.684 20.8587 103.283 20.8587C102.571 20.8587 101.941 21.0376 101.391 21.3956C100.841 21.7493 100.411 22.2692 100.1 22.9553C99.7887 23.6371 99.6332 24.4702 99.6332 25.4545C99.6332 26.456 99.7887 27.2997 100.1 27.9858C100.415 28.6676 100.846 29.1832 101.391 29.5327C101.941 29.8778 102.569 30.0504 103.277 30.0504C103.669 30.0504 104.035 29.9993 104.376 29.897C104.721 29.7905 105.03 29.6349 105.303 29.4304C105.58 29.2259 105.812 28.9744 106 28.6761C106.191 28.3778 106.324 28.0369 106.396 27.6534L108.787 27.6662C108.697 28.2884 108.503 28.8722 108.205 29.4176C107.911 29.9631 107.525 30.4446 107.048 30.8622C106.571 31.2756 106.012 31.5994 105.373 31.8338C104.734 32.0639 104.025 32.179 103.245 32.179C102.094 32.179 101.067 31.9126 100.164 31.38C99.2603 30.8473 98.5487 30.0781 98.0288 29.0724C97.5089 28.0668 97.249 26.8608 97.249 25.4545C97.249 24.044 97.511 22.8381 98.0352 21.8366C98.5593 20.831 99.2731 20.0618 100.177 19.5291C101.08 18.9964 102.103 18.7301 103.245 18.7301C103.973 18.7301 104.651 18.8324 105.277 19.0369C105.904 19.2415 106.462 19.5419 106.952 19.9382C107.442 20.3303 107.845 20.8118 108.16 21.3828C108.48 21.9496 108.689 22.5973 108.787 23.326ZM111.678 32V18.9091H116.587C117.593 18.9091 118.437 19.0838 119.119 19.4332C119.805 19.7827 120.322 20.2727 120.672 20.9034C121.026 21.5298 121.202 22.2607 121.202 23.0959C121.202 23.9354 121.023 24.6641 120.666 25.282C120.312 25.8956 119.79 26.3707 119.099 26.7074C118.409 27.0398 117.561 27.206 116.555 27.206H113.059V25.2372H116.236C116.824 25.2372 117.305 25.1562 117.68 24.9943C118.055 24.8281 118.332 24.5874 118.511 24.272C118.695 23.9524 118.786 23.5604 118.786 23.0959C118.786 22.6314 118.695 22.2351 118.511 21.907C118.328 21.5746 118.049 21.3232 117.674 21.1527C117.299 20.978 116.815 20.8906 116.223 20.8906H114.05V32H111.678ZM118.441 26.0682L121.682 32H119.036L115.852 26.0682H118.441ZM123.21 18.9091H125.889L129.091 24.7003H129.219L132.421 18.9091H135.1L130.338 27.1165V32H127.973V27.1165L123.21 18.9091ZM137.499 32V18.9091H142.408C143.414 18.9091 144.258 19.0966 144.94 19.4716C145.626 19.8466 146.143 20.3622 146.493 21.0185C146.846 21.6705 147.023 22.4119 147.023 23.2429C147.023 24.0824 146.846 24.8281 146.493 25.4801C146.139 26.1321 145.617 26.6456 144.927 27.0206C144.236 27.3913 143.386 27.5767 142.376 27.5767H139.123V25.6271H142.057C142.645 25.6271 143.126 25.5249 143.501 25.3203C143.876 25.1158 144.153 24.8345 144.332 24.4766C144.515 24.1186 144.607 23.7074 144.607 23.2429C144.607 22.7784 144.515 22.3693 144.332 22.0156C144.153 21.6619 143.874 21.3871 143.495 21.1911C143.12 20.9908 142.636 20.8906 142.044 20.8906H139.871V32H137.499ZM149.228 20.897V18.9091H159.672V20.897H155.626V32H153.274V20.897H149.228Z" fill="#E0E0E0"/>
    <defs>
        <linearGradient id="paint0_linear_1328:21963" x1="-0.00074063" y1="21.9116" x2="37.6723" y2="21.9116" gradientUnits="userSpaceOnUse">
            <stop stop-color="#FF088A"/>
            <stop offset="1" stop-color="#BF0975"/>
        </linearGradient>
    </defs>
</svg>
