<svg width="16" height="16" viewBox="0 0 16 16" fill="none" xmlns="http://www.w3.org/2000/svg">
<path d="M6.33338 7.00037H8.00005C8.17686 7.00037 8.34643 6.93013 8.47145 6.80511C8.59647 6.68008 8.66671 6.51052 8.66671 6.3337C8.66671 6.15689 8.59647 5.98732 8.47145 5.8623C8.34643 5.73728 8.17686 5.66704 8.00005 5.66704H7.33338V5.3337C7.33338 5.15689 7.26314 4.98732 7.13812 4.8623C7.01309 4.73728 6.84352 4.66704 6.66671 4.66704C6.4899 4.66704 6.32033 4.73728 6.19531 4.8623C6.07028 4.98732 6.00005 5.15689 6.00005 5.3337V5.70037C5.59499 5.78262 5.23495 6.01244 4.98982 6.34521C4.74468 6.67799 4.63194 7.08998 4.67348 7.5012C4.71501 7.91243 4.90787 8.29355 5.2146 8.57058C5.52133 8.84761 5.92006 9.00079 6.33338 9.00037H7.00005C7.08845 9.00037 7.17324 9.03549 7.23575 9.098C7.29826 9.16051 7.33338 9.2453 7.33338 9.3337C7.33338 9.42211 7.29826 9.5069 7.23575 9.56941C7.17324 9.63192 7.08845 9.66704 7.00005 9.66704H5.33338C5.15657 9.66704 4.987 9.73728 4.86197 9.8623C4.73695 9.98732 4.66671 10.1569 4.66671 10.3337C4.66671 10.5105 4.73695 10.6801 4.86197 10.8051C4.987 10.9301 5.15657 11.0004 5.33338 11.0004H6.00005V11.3337C6.00005 11.5105 6.07028 11.6801 6.19531 11.8051C6.32033 11.9301 6.4899 12.0004 6.66671 12.0004C6.84352 12.0004 7.01309 11.9301 7.13812 11.8051C7.26314 11.6801 7.33338 11.5105 7.33338 11.3337V10.967C7.73843 10.8848 8.09847 10.655 8.34361 10.3222C8.58874 9.98942 8.70149 9.57743 8.65995 9.16621C8.61841 8.75498 8.42556 8.37386 8.11882 8.09683C7.81209 7.8198 7.41336 7.66662 7.00005 7.66704H6.33338C6.24497 7.66704 6.16019 7.63192 6.09768 7.56941C6.03516 7.5069 6.00005 7.42211 6.00005 7.3337C6.00005 7.2453 6.03516 7.16051 6.09768 7.098C6.16019 7.03549 6.24497 7.00037 6.33338 7.00037ZM14 8.00037H12V2.00037C12.0005 1.8829 11.9699 1.76739 11.9114 1.66554C11.8529 1.56368 11.7684 1.47911 11.6667 1.42037C11.5654 1.36186 11.4504 1.33105 11.3334 1.33105C11.2164 1.33105 11.1014 1.36186 11 1.42037L9.00005 2.56704L7.00005 1.42037C6.8987 1.36186 6.78374 1.33105 6.66671 1.33105C6.54969 1.33105 6.43473 1.36186 6.33338 1.42037L4.33338 2.56704L2.33338 1.42037C2.23203 1.36186 2.11707 1.33105 2.00005 1.33105C1.88302 1.33105 1.76806 1.36186 1.66671 1.42037C1.56498 1.47911 1.48057 1.56368 1.42203 1.66554C1.3635 1.76739 1.33291 1.8829 1.33338 2.00037V12.667C1.33338 13.1975 1.54409 13.7062 1.91917 14.0813C2.29424 14.4563 2.80295 14.667 3.33338 14.667H12.6667C13.1971 14.667 13.7059 14.4563 14.0809 14.0813C14.456 13.7062 14.6667 13.1975 14.6667 12.667V8.66704C14.6667 8.49023 14.5965 8.32066 14.4714 8.19563C14.3464 8.07061 14.1769 8.00037 14 8.00037ZM3.33338 13.3337C3.15657 13.3337 2.987 13.2635 2.86197 13.1384C2.73695 13.0134 2.66671 12.8438 2.66671 12.667V3.1537L4.00005 3.9137C4.10294 3.96745 4.2173 3.99551 4.33338 3.99551C4.44946 3.99551 4.56382 3.96745 4.66671 3.9137L6.66671 2.76704L8.66671 3.9137C8.7696 3.96745 8.88396 3.99551 9.00005 3.99551C9.11613 3.99551 9.23049 3.96745 9.33338 3.9137L10.6667 3.1537V12.667C10.6685 12.8945 10.7091 13.1199 10.7867 13.3337H3.33338ZM13.3334 12.667C13.3334 12.8438 13.2631 13.0134 13.1381 13.1384C13.0131 13.2635 12.8435 13.3337 12.6667 13.3337C12.4899 13.3337 12.3203 13.2635 12.1953 13.1384C12.0703 13.0134 12 12.8438 12 12.667V9.3337H13.3334V12.667Z" fill="#8A8F99"/>
</svg>
