<svg xmlns="http://www.w3.org/2000/svg" xmlns:xlink="http://www.w3.org/1999/xlink" version="1.1" width="256" height="256" viewBox="0 0 256 256" xml:space="preserve">
<desc>Created with Fabric.js 1.7.22</desc>
<defs>
</defs>
<g transform="translate(128 128) scale(0.72 0.72)" style="">
	<g style="stroke: none; stroke-width: 0; stroke-dasharray: none; stroke-linecap: butt; stroke-linejoin: miter; stroke-miterlimit: 10; fill: none; fill-rule: nonzero; opacity: 1;" transform="translate(-175.05 -175.05000000000004) scale(3.89 3.89)" >
	<path d="M 81.7 16.952 H 54.805 c -0.002 -0.058 -0.006 -0.115 -0.009 -0.173 c 7.839 -2.762 14.866 -4.195 21.445 -4.355 c 0.415 -0.01 0.78 -0.275 0.919 -0.667 c 0.138 -0.391 0.02 -0.827 -0.297 -1.096 l -4.971 -4.217 l 1.569 -5.154 c 0.101 -0.33 0.023 -0.689 -0.203 -0.949 c -0.228 -0.26 -0.565 -0.383 -0.913 -0.33 C 62.16 1.651 54.035 4.209 47.505 7.813 C 46.704 7.602 45.867 7.478 45 7.478 s -1.704 0.124 -2.505 0.336 c -6.53 -3.604 -14.655 -6.162 -24.841 -7.801 c -0.337 -0.054 -0.686 0.07 -0.912 0.33 c -0.227 0.26 -0.304 0.618 -0.203 0.948 l 1.569 5.154 l -4.971 4.217 c -0.316 0.269 -0.434 0.705 -0.296 1.096 c 0.138 0.392 0.504 0.657 0.919 0.667 c 6.579 0.159 13.605 1.591 21.445 4.353 c -0.003 0.058 -0.007 0.116 -0.009 0.174 H 8.3 c -2.146 0 -3.891 1.745 -3.891 3.89 v 8.776 c 0 2.146 1.745 3.891 3.891 3.891 h 5.263 v 51.759 c 0 2.609 2.123 4.731 4.731 4.731 h 21.295 h 10.822 h 21.295 c 2.609 0 4.731 -2.122 4.731 -4.731 V 33.509 H 81.7 c 2.146 0 3.891 -1.745 3.891 -3.891 v -8.776 C 85.591 18.697 83.846 16.952 81.7 16.952 z M 52.657 27.763 l -0.019 4.908 l -5.737 -5.737 c 2.947 -0.581 5.421 -2.483 6.784 -5.062 l 4.875 4.875 l -4.908 0.019 C 53.104 26.769 52.659 27.213 52.657 27.763 z M 36.347 26.767 l -4.908 -0.019 l 4.875 -4.875 c 1.363 2.579 3.838 4.481 6.784 5.062 l -5.737 5.737 l -0.019 -4.908 C 37.341 27.213 36.896 26.769 36.347 26.767 z M 45 27.86 l 3.649 3.649 h -7.298 L 45 27.86 z M 71.078 2.253 l -1.291 4.238 c -0.116 0.382 0.006 0.796 0.311 1.054 l 3.538 3.002 c -5.946 0.42 -12.253 1.819 -19.156 4.224 c -0.679 -2.54 -2.347 -4.675 -4.571 -5.966 C 55.635 5.891 62.586 3.732 71.078 2.253 z M 52.822 17.3 c 0 4.313 -3.509 7.822 -7.822 7.822 c -4.313 0 -7.822 -3.509 -7.822 -7.822 S 40.687 9.478 45 9.478 C 49.313 9.478 52.822 12.987 52.822 17.3 z M 16.364 10.547 l 3.538 -3.002 c 0.304 -0.258 0.426 -0.672 0.31 -1.054 l -1.29 -4.239 c 8.492 1.479 15.444 3.638 21.169 6.553 c -2.224 1.291 -3.892 3.425 -4.571 5.965 C 28.616 12.365 22.31 10.967 16.364 10.547 z M 6.409 29.619 v -8.776 c 0 -1.042 0.848 -1.89 1.891 -1.89 h 27.028 c 0.051 0.3 0.116 0.594 0.194 0.884 l -7.195 7.195 c -0.286 0.286 -0.372 0.714 -0.218 1.088 s 0.517 0.618 0.921 0.619 l 6.317 0.024 l 0.01 2.747 H 8.3 C 7.257 31.509 6.409 30.661 6.409 29.619 z M 18.294 88 c -1.506 0 -2.731 -1.226 -2.731 -2.731 V 33.509 h 19.802 l 0.006 1.57 c 0.001 0.404 0.246 0.767 0.619 0.921 c 0.123 0.051 0.252 0.075 0.381 0.075 c 0.26 0 0.516 -0.102 0.707 -0.293 l 2.273 -2.273 h 0.239 V 88 H 18.294 z M 41.589 88 V 33.509 h 6.822 V 88 H 41.589 z M 74.438 85.269 c 0 1.506 -1.226 2.731 -2.731 2.731 H 50.411 V 33.509 h 0.238 l 2.273 2.273 c 0.191 0.191 0.447 0.293 0.707 0.293 c 0.128 0 0.258 -0.024 0.381 -0.075 c 0.373 -0.154 0.617 -0.517 0.619 -0.921 l 0.006 -1.57 h 19.803 V 85.269 z M 83.591 29.619 c 0 1.042 -0.848 1.891 -1.891 1.891 H 54.643 l 0.011 -2.747 l 6.317 -0.024 c 0.403 -0.001 0.767 -0.246 0.921 -0.619 c 0.153 -0.374 0.067 -0.803 -0.218 -1.088 l -7.196 -7.195 c 0.078 -0.29 0.143 -0.584 0.194 -0.884 H 81.7 c 1.043 0 1.891 0.848 1.891 1.89 V 29.619 z" style="stroke: none; stroke-width: 1; stroke-dasharray: none; stroke-linecap: butt; stroke-linejoin: miter; stroke-miterlimit: 10; fill: rgb(255,255,255); fill-rule: nonzero; opacity: 1;" transform=" matrix(1 0 0 1 0 0) " stroke-linecap="round" />
</g>
</g>
</svg>