<svg xmlns="http://www.w3.org/2000/svg" xmlns:xlink="http://www.w3.org/1999/xlink" version="1.1" width="256" height="256" viewBox="0 0 256 256" xml:space="preserve">
<desc>Created with Fabric.js 1.7.22</desc>
<defs>
</defs>
<g transform="translate(128 128) scale(0.72 0.72)" style="">
	<g style="stroke: none; stroke-width: 0; stroke-dasharray: none; stroke-linecap: butt; stroke-linejoin: miter; stroke-miterlimit: 10; fill: none; fill-rule: nonzero; opacity: 1;" transform="translate(-175.05 -175.05000000000004) scale(3.89 3.89)" >
	<path d="M 43.088 89.998 c -2.863 0 -5.694 -1.053 -8.442 -2.074 c -3.025 -1.123 -6.155 -2.291 -9.253 -2.011 l -6.521 0.579 c -0.275 0.03 -0.556 -0.069 -0.764 -0.259 c -0.207 -0.189 -0.325 -0.457 -0.325 -0.737 V 57.929 c 0 -0.519 0.395 -0.95 0.912 -0.996 l 3.222 -0.285 c 2.593 -0.227 4.747 0.777 6.836 1.75 c 1.967 0.917 3.829 1.788 5.963 1.607 l 13.682 -2.483 c 4.897 -0.839 7.59 2 9.228 4.587 l 14.955 -6.953 c 5.623 -2.521 11.94 0.008 15.731 6.3 c 0.99 1.645 0.439 3.831 -1.228 4.873 c -1.941 1.211 -3.875 2.423 -5.789 3.622 C 64.624 80.396 50.226 89.417 44.069 89.955 C 43.742 89.984 43.415 89.998 43.088 89.998 z M 26.35 83.871 c 3.132 0 6.106 1.105 8.993 2.179 c 2.985 1.109 5.804 2.16 8.551 1.913 c 5.679 -0.496 20.572 -9.828 36.34 -19.708 c 1.915 -1.199 3.849 -2.412 5.792 -3.624 c 0.747 -0.467 1.005 -1.428 0.574 -2.143 c -3.244 -5.383 -8.545 -7.599 -13.186 -5.512 l -15.759 7.327 c -0.476 0.218 -1.031 0.039 -1.289 -0.409 c -1.475 -2.57 -3.538 -5.095 -7.62 -4.401 l -13.77 2.495 c -2.757 0.232 -4.95 -0.789 -7.067 -1.775 c -1.935 -0.902 -3.764 -1.751 -5.815 -1.571 l -2.31 0.204 v 25.559 l 5.432 -0.482 C 25.597 83.887 25.975 83.871 26.35 83.871 z" style="stroke: none; stroke-width: 1; stroke-dasharray: none; stroke-linecap: butt; stroke-linejoin: miter; stroke-miterlimit: 10; fill: rgb(255,255,255); fill-rule: nonzero; opacity: 1;" transform=" matrix(1 0 0 1 0 0) " stroke-linecap="round" />
	<path d="M 39.25 75.632 c -0.467 0 -0.885 -0.328 -0.979 -0.804 c -0.108 -0.542 0.243 -1.068 0.785 -1.177 c 5.411 -1.082 11.496 -3.555 18.576 -7.553 l -1.266 -2.206 c -0.275 -0.479 -0.109 -1.091 0.369 -1.365 c 0.48 -0.274 1.091 -0.108 1.365 0.369 l 1.765 3.076 c 0.274 0.479 0.109 1.09 -0.368 1.364 c -7.643 4.4 -14.202 7.107 -20.049 8.276 C 39.381 75.627 39.315 75.632 39.25 75.632 z" style="stroke: none; stroke-width: 1; stroke-dasharray: none; stroke-linecap: butt; stroke-linejoin: miter; stroke-miterlimit: 10; fill: rgb(255,255,255); fill-rule: nonzero; opacity: 1;" transform=" matrix(1 0 0 1 0 0) " stroke-linecap="round" />
	<path d="M 16.332 89.998 H 4.644 c -1.903 0 -3.452 -1.548 -3.452 -3.451 v -31.42 c 0 -1.903 1.548 -3.451 3.452 -3.451 h 11.688 c 1.903 0 3.452 1.548 3.452 3.451 v 31.42 C 19.784 88.45 18.236 89.998 16.332 89.998 z M 4.644 53.675 c -0.8 0 -1.452 0.651 -1.452 1.451 v 31.42 c 0 0.8 0.651 1.451 1.452 1.451 h 11.688 c 0.8 0 1.452 -0.651 1.452 -1.451 v -31.42 c 0 -0.8 -0.651 -1.451 -1.452 -1.451 H 4.644 z" style="stroke: none; stroke-width: 1; stroke-dasharray: none; stroke-linecap: butt; stroke-linejoin: miter; stroke-miterlimit: 10; fill: rgb(255,255,255); fill-rule: nonzero; opacity: 1;" transform=" matrix(1 0 0 1 0 0) " stroke-linecap="round" />
	<path d="M 41.49 23.919 c -2.735 0 -4.961 -2.225 -4.961 -4.961 c 0 -2.735 2.225 -4.961 4.961 -4.961 c 2.736 0 4.962 2.225 4.962 4.961 C 46.452 21.693 44.226 23.919 41.49 23.919 z M 41.49 15.997 c -1.633 0 -2.961 1.328 -2.961 2.961 c 0 1.633 1.328 2.961 2.961 2.961 s 2.961 -1.329 2.961 -2.961 C 44.452 17.325 43.123 15.997 41.49 15.997 z" style="stroke: none; stroke-width: 1; stroke-dasharray: none; stroke-linecap: butt; stroke-linejoin: miter; stroke-miterlimit: 10; fill: rgb(255,255,255); fill-rule: nonzero; opacity: 1;" transform=" matrix(1 0 0 1 0 0) " stroke-linecap="round" />
	<path d="M 39.475 36.561 c -0.241 0 -0.483 -0.087 -0.675 -0.263 c -0.407 -0.373 -0.435 -1.005 -0.062 -1.413 l 18.833 -20.564 c 0.374 -0.407 1.005 -0.436 1.413 -0.062 c 0.407 0.373 0.435 1.005 0.062 1.413 L 40.213 36.236 C 40.015 36.452 39.746 36.561 39.475 36.561 z" style="stroke: none; stroke-width: 1; stroke-dasharray: none; stroke-linecap: butt; stroke-linejoin: miter; stroke-miterlimit: 10; fill: rgb(255,255,255); fill-rule: nonzero; opacity: 1;" transform=" matrix(1 0 0 1 0 0) " stroke-linecap="round" />
	<path d="M 56.292 36.561 c -2.735 0 -4.961 -2.225 -4.961 -4.961 c 0 -2.735 2.225 -4.961 4.961 -4.961 s 4.961 2.225 4.961 4.961 C 61.253 34.335 59.028 36.561 56.292 36.561 z M 56.292 28.639 c -1.633 0 -2.961 1.328 -2.961 2.961 s 1.328 2.961 2.961 2.961 c 1.633 0 2.961 -1.329 2.961 -2.961 S 57.925 28.639 56.292 28.639 z" style="stroke: none; stroke-width: 1; stroke-dasharray: none; stroke-linecap: butt; stroke-linejoin: miter; stroke-miterlimit: 10; fill: rgb(255,255,255); fill-rule: nonzero; opacity: 1;" transform=" matrix(1 0 0 1 0 0) " stroke-linecap="round" />
	<path d="M 41.82 50.56 c -1.267 0 -2.482 -0.686 -3.119 -1.886 l -2.52 -4.751 c -0.224 -0.423 -0.623 -0.713 -1.094 -0.795 l -5.298 -0.929 c -1.892 -0.332 -3.162 -2.081 -2.893 -3.983 l 0.753 -5.325 c 0.066 -0.466 -0.09 -0.947 -0.418 -1.286 l -3.74 -3.866 c -1.335 -1.38 -1.335 -3.542 0 -4.923 l 3.74 -3.865 c 0.333 -0.344 0.485 -0.813 0.418 -1.287 l -0.753 -5.324 c -0.269 -1.902 1.002 -3.651 2.894 -3.982 l 5.297 -0.929 c 0.471 -0.083 0.871 -0.373 1.095 -0.795 l 2.52 -4.751 c 0.899 -1.696 2.957 -2.365 4.682 -1.521 l 4.832 2.362 c 0.424 0.207 0.93 0.207 1.352 0 l 0 0 l 4.832 -2.362 c 1.729 -0.843 3.783 -0.175 4.682 1.521 l 2.521 4.75 c 0.224 0.422 0.623 0.712 1.094 0.795 l 5.297 0.929 c 1.892 0.331 3.163 2.08 2.893 3.983 l -0.753 5.324 c -0.066 0.474 0.086 0.943 0.418 1.287 l 3.739 3.865 c 1.336 1.38 1.336 3.543 0 4.923 l -3.739 3.865 c -0.333 0.344 -0.485 0.812 -0.418 1.287 l 0.753 5.324 c 0.27 1.901 -1.002 3.651 -2.893 3.983 l -5.297 0.929 c -0.472 0.083 -0.87 0.373 -1.094 0.795 l -2.521 4.751 c -0.9 1.699 -2.957 2.364 -4.682 1.52 l -4.832 -2.361 c -0.422 -0.207 -0.929 -0.207 -1.352 0 l -4.831 2.361 C 42.879 50.442 42.345 50.56 41.82 50.56 z M 41.825 2 c -0.551 0 -1.08 0.298 -1.357 0.82 l -2.52 4.751 c -0.515 0.971 -1.432 1.637 -2.515 1.828 l -5.298 0.929 c -0.823 0.144 -1.376 0.905 -1.259 1.732 l 0.753 5.325 c 0.153 1.089 -0.197 2.166 -0.96 2.957 l -3.74 3.866 c -0.581 0.601 -0.581 1.541 0 2.142 l 3.74 3.866 c 0.764 0.79 1.114 1.868 0.961 2.956 l -0.753 5.325 c -0.117 0.827 0.436 1.588 1.259 1.733 l 5.297 0.929 c 1.083 0.19 2 0.856 2.516 1.828 l 2.52 4.751 c 0.392 0.738 1.287 1.028 2.037 0.661 l 4.832 -2.361 c 0.99 -0.482 2.122 -0.481 3.109 0 l 4.832 2.361 c 0.75 0.366 1.644 0.078 2.036 -0.661 l 2.521 -4.751 c 0.516 -0.972 1.433 -1.638 2.516 -1.828 l 5.297 -0.929 c 0.823 -0.145 1.376 -0.906 1.259 -1.733 l -0.753 -5.325 c -0.153 -1.09 0.196 -2.167 0.961 -2.957 l 3.739 -3.866 c 0.581 -0.601 0.581 -1.541 0 -2.142 l -3.739 -3.865 c -0.765 -0.79 -1.114 -1.868 -0.961 -2.957 l 0.753 -5.325 c 0.117 -0.827 -0.436 -1.588 -1.259 -1.732 l -5.297 -0.929 c -1.083 -0.19 -2 -0.856 -2.516 -1.828 l -2.521 -4.751 c -0.391 -0.738 -1.285 -1.031 -2.036 -0.662 l -4.832 2.362 c -0.987 0.482 -2.118 0.483 -3.108 0 l -4.832 -2.362 C 42.285 2.052 42.053 2 41.825 2 z" style="stroke: none; stroke-width: 1; stroke-dasharray: none; stroke-linecap: butt; stroke-linejoin: miter; stroke-miterlimit: 10; fill: rgb(255,255,255); fill-rule: nonzero; opacity: 1;" transform=" matrix(1 0 0 1 0 0) " stroke-linecap="round" />
</g>
</g>
</svg>