<svg width="16" height="16" viewBox="0 0 16 16" fill="none" xmlns="http://www.w3.org/2000/svg">
<path d="M14.2733 5.75976C14.2733 5.75976 14.2733 5.75976 14.2733 5.72643C13.8036 4.44391 12.9512 3.33661 11.8316 2.55433C10.712 1.77205 9.37914 1.35254 8.0133 1.35254C6.64747 1.35254 5.31459 1.77205 4.19497 2.55433C3.07536 3.33661 2.22303 4.44391 1.7533 5.72643C1.7533 5.72643 1.7533 5.72643 1.7533 5.75976C1.22872 7.20702 1.22872 8.79249 1.7533 10.2398C1.7533 10.2398 1.7533 10.2398 1.7533 10.2731C2.22303 11.5556 3.07536 12.6629 4.19497 13.4452C5.31459 14.2275 6.64747 14.647 8.0133 14.647C9.37914 14.647 10.712 14.2275 11.8316 13.4452C12.9512 12.6629 13.8036 11.5556 14.2733 10.2731C14.2733 10.2731 14.2733 10.2731 14.2733 10.2398C14.7979 8.79249 14.7979 7.20702 14.2733 5.75976ZM2.83997 9.33309C2.60879 8.45923 2.60879 7.54028 2.83997 6.66642H4.07997C3.97332 7.55211 3.97332 8.4474 4.07997 9.33309H2.83997ZM3.38663 10.6664H4.31997C4.47645 11.261 4.70011 11.8358 4.98663 12.3798C4.33283 11.9344 3.7863 11.3491 3.38663 10.6664ZM4.31997 5.33309H3.38663C3.78055 4.65248 4.3201 4.0674 4.96663 3.61976C4.687 4.16459 4.47006 4.73937 4.31997 5.33309ZM7.3333 13.1331C6.51448 12.5322 5.9394 11.6566 5.7133 10.6664H7.3333V13.1331ZM7.3333 9.33309H5.42663C5.30223 8.44856 5.30223 7.55096 5.42663 6.66642H7.3333V9.33309ZM7.3333 5.33309H5.7133C5.9394 4.34294 6.51448 3.4673 7.3333 2.86642V5.33309ZM12.6133 5.33309H11.68C11.5235 4.73853 11.2998 4.16372 11.0133 3.61976C11.6671 4.06514 12.2136 4.65039 12.6133 5.33309ZM8.66663 2.86642C9.48546 3.4673 10.0605 4.34294 10.2866 5.33309H8.66663V2.86642ZM8.66663 13.1331V10.6664H10.2866C10.0605 11.6566 9.48546 12.5322 8.66663 13.1331ZM10.5733 9.33309H8.66663V6.66642H10.5733C10.6977 7.55096 10.6977 8.44856 10.5733 9.33309ZM11.0333 12.3798C11.3198 11.8358 11.5435 11.261 11.7 10.6664H12.6333C12.2336 11.3491 11.6871 11.9344 11.0333 12.3798ZM13.16 9.33309H11.92C11.9742 8.89073 12.0009 8.44543 12 7.99976C12.0007 7.55409 11.974 7.10881 11.92 6.66642H13.16C13.3911 7.54028 13.3911 8.45923 13.16 9.33309Z" fill="#8A8F99"/>
</svg>
