<svg width="135" height="158" viewBox="0 0 135 158" fill="none" xmlns="http://www.w3.org/2000/svg">
    <rect x="15" y="86.2002" width="51" height="51" rx="16" transform="rotate(-15 15 86.2002)" fill="url(#paint0_linear_267:23280)"/>
    <path opacity="0.6" fill-rule="evenodd" clip-rule="evenodd" d="M50.6542 120.74L36.7651 108.734L48.4075 112.355L56.6796 103.398L50.6542 120.74Z" fill="white"/>
    <path opacity="0.5" fill-rule="evenodd" clip-rule="evenodd" d="M50.6543 120.739L48.4075 112.354L56.6797 103.397L50.6543 120.739Z" fill="white"/>
    <path opacity="0.6" fill-rule="evenodd" clip-rule="evenodd" d="M41.8076 87.7236L56.2584 101.826L47.9862 110.782L36.3439 107.162L41.8076 87.7236Z" fill="white"/>
    <path opacity="0.5" fill-rule="evenodd" clip-rule="evenodd" d="M41.8076 87.7236L56.2584 101.826L47.9862 110.783L45.0373 99.7772L41.8076 87.7236Z" fill="white"/>
    <path opacity="0.2" fill-rule="evenodd" clip-rule="evenodd" d="M41.8076 87.7236L56.2584 101.826L45.0373 99.7772L41.8076 87.7236Z" fill="white"/>
    <path opacity="0.5" fill-rule="evenodd" clip-rule="evenodd" d="M56.2584 101.826L47.9862 110.783L36.3439 107.162L45.0373 99.7773L56.2584 101.826Z" fill="white"/>
    <rect x="63.4353" y="7" width="76" height="76" rx="16" transform="rotate(20.3548 63.4353 7)" fill="url(#paint1_linear_267:23280)"/>
    <path d="M92.0303 64.1642L93.4491 67.3362L96.2041 73.481L95.5323 73.7868C91.7331 75.5194 87.5484 75.8423 83.6049 74.7363C83.1203 75.224 82.3854 75.416 81.7096 75.1652C81.0208 74.9097 80.5838 74.2659 80.5503 73.5639C78.999 72.7952 77.58 71.8017 76.3176 70.5974C74.6679 69.0244 73.3548 67.1581 72.4134 65.0556C71.4719 62.9532 70.9504 60.7155 70.8611 58.4084C70.7868 56.4637 71.0233 54.5391 71.5682 52.6677C71.1238 52.1825 70.9624 51.4624 71.2104 50.794C71.4663 50.1041 72.0876 49.6572 72.7649 49.6004C73.5392 48.0415 74.5248 46.6124 75.711 45.336C77.2834 43.6453 79.1382 42.2893 81.2231 41.3096C83.3081 40.3299 85.5207 39.7717 87.7971 39.6553C89.5323 39.5655 91.2486 39.7376 92.9225 40.163C93.4058 39.6259 94.1757 39.4054 94.8817 39.6673C95.5748 39.9244 96.0124 40.5733 96.042 41.2788C97.7485 42.0782 99.3024 43.1437 100.669 44.4575C102.326 46.0503 103.641 47.937 104.576 50.0639L104.866 50.7267L101.787 52.1761L95.635 55.0752L95.3416 54.3941C94.5275 52.5027 93.0278 51.0734 91.1185 50.3651C87.2549 48.9317 82.922 50.9675 81.4611 54.9051C80.0003 58.8427 81.9569 63.212 85.8206 64.6454C87.6157 65.3114 89.5786 65.2547 91.3479 64.4856L92.0303 64.1642Z" fill="white"/>
    <defs>
        <linearGradient id="paint0_linear_267:23280" x1="15" y1="86.2002" x2="15" y2="137.2" gradientUnits="userSpaceOnUse">
            <stop stop-color="#8C58FF"/>
            <stop offset="1" stop-color="#5A3BE6"/>
        </linearGradient>
        <linearGradient id="paint1_linear_267:23280" x1="63.4353" y1="7" x2="63.4353" y2="83" gradientUnits="userSpaceOnUse">
            <stop stop-color="#C528FC"/>
            <stop offset="1" stop-color="#D71EAE"/>
        </linearGradient>
    </defs>
</svg>
