<svg width="19" height="17" viewBox="0 0 19 17" fill="none" xmlns="http://www.w3.org/2000/svg">
    <path fill-rule="evenodd" clip-rule="evenodd" d="M14.8928 5.08281H18.8889C18.8889 1.87434 16.9664 0 13.7091 0H5.17975C1.92247 0 0 1.87434 0 5.04189V11.9581C0 15.1257 1.92247 17 5.17975 17H13.7091C16.9664 17 18.8889 15.1257 18.8889 11.9581V11.6635H14.8928C13.0383 11.6635 11.5348 10.1977 11.5348 8.3895C11.5348 6.58135 13.0383 5.11555 14.8928 5.11555V5.08281ZM14.8927 6.49062H18.1835C18.573 6.49062 18.8887 6.79844 18.8887 7.17815V9.56814C18.8842 9.946 18.5711 10.2512 18.1835 10.2557H14.9682C14.0293 10.268 13.2083 9.64125 12.9954 8.74965C12.8887 8.19617 13.0384 7.62504 13.4044 7.18932C13.7703 6.75361 14.3151 6.49786 14.8927 6.49062ZM15.0357 9.00338H15.3464C15.7451 9.00338 16.0683 8.68823 16.0683 8.29948C16.0683 7.91073 15.7451 7.59558 15.3464 7.59558H15.0357C14.845 7.59339 14.6614 7.66572 14.5257 7.79643C14.3901 7.92714 14.3137 8.10535 14.3138 8.2913C14.3137 8.68139 14.6356 8.9989 15.0357 9.00338ZM4.47444 5.0828H9.8053C10.204 5.0828 10.5273 4.76765 10.5273 4.3789C10.5273 3.99015 10.204 3.675 9.8053 3.675H4.47444C4.07896 3.67498 3.75706 3.98516 3.75246 4.37072C3.75243 4.76082 4.07435 5.07832 4.47444 5.0828Z" fill="#3671E9"/>
</svg>
