<svg width="50" height="48" viewBox="0 0 50 48" fill="none" xmlns="http://www.w3.org/2000/svg">
    <ellipse cx="25.0067" cy="24" rx="24.4434" ry="24" fill="#192025"/>
    <g clip-path="url(#clip0_328:23617)">
        <path d="M26.5579 10C20.5826 10.0235 15.7445 14.7588 15.7205 20.6071C15.7205 21.7783 15.9136 22.9417 16.2919 24.0526C16.5742 24.8088 17.412 25.216 18.1984 24.9822C18.9584 24.6969 19.3619 23.8837 19.1196 23.123C18.7984 22.2571 18.6556 21.3387 18.6978 20.4192C18.8281 16.1951 22.4319 12.8738 26.7476 13.0014C31.0634 13.1289 34.4568 16.656 34.3265 20.8801C34.2042 24.8345 31.0223 28.0462 26.9865 28.2867C26.9865 28.2867 25.4652 28.3773 24.7086 28.4679C24.4297 28.5071 24.1531 28.5608 23.88 28.629C23.8411 28.6682 23.7782 28.6682 23.7382 28.6301L23.7371 28.629C23.7097 28.5943 23.7097 28.5451 23.7371 28.5104L23.9725 27.2531L25.4012 20.964C25.5727 20.1787 25.0618 19.4057 24.2594 19.2379C23.4571 19.0701 22.6673 19.5701 22.4959 20.3554C22.4959 20.3554 19.0979 35.7493 19.0979 35.8891C18.9036 36.6375 19.3653 37.3982 20.13 37.5883C20.138 37.5906 20.1471 37.5928 20.1551 37.5939H20.234C20.9975 37.7875 21.7769 37.3378 21.9735 36.5905C21.977 36.5782 21.9804 36.5659 21.9827 36.5525C21.9804 36.529 21.9804 36.5055 21.9827 36.4831C22.025 36.3019 22.4536 34.2536 22.4536 34.2536C22.7782 32.7076 24.0514 31.523 25.6447 31.2836C25.9727 31.2344 27.3511 31.1437 27.3511 31.1437C33.3036 30.5632 37.6479 25.3692 37.0536 19.5433C36.5118 14.2296 32.0143 10.1387 26.5579 10Z" fill="white"/>
        <path d="M27.2151 34.4574C26.2379 34.2583 25.2824 34.8724 25.079 35.8278C25.0767 35.8367 25.0755 35.8457 25.0732 35.8546C24.8618 36.8044 25.4767 37.7429 26.4482 37.9499C26.4494 37.9499 26.4505 37.9499 26.4516 37.951H26.5019C27.4529 38.1758 28.4095 37.6031 28.6381 36.6735C28.6404 36.6668 28.6415 36.6589 28.6438 36.6522V36.5549C28.8118 35.5951 28.1855 34.6744 27.2151 34.4574Z" fill="#E6007A"/>
    </g>
    <defs>
        <clipPath id="clip0_328:23617">
            <rect width="21.388" height="28" fill="white" transform="translate(15.7205 10)"/>
        </clipPath>
    </defs>
</svg>
